<?xml version="1.0" encoding="utf-8"?>
<?xml-stylesheet type="text/xsl" href="rss1.xsl"?>
<rss version="2.0" xmlns:atom="http://www.w3.org/2005/Atom" xmlns:content="http://purl.org/rss/1.0/modules/content/" xmlns:dc="http://purl.org/dc/elements/1.1/" xmlns:media="http://search.yahoo.com/mrss/">
<channel>
 <title>Getty</title>
 <link>http://www.gettyimg.com/</link>
 <atom:link href="http://www.gettyimg.com/" rel="self" type="application/rss+xml" />

 
                <item>
                <title><![CDATA[【Cinema Center】MOVIE - Sabrina the Teenage Witch (1996) iNTERNAL DVDRip x264 - MARS]]></title>
                <link><![CDATA[https://sharemania.us/threads/sabrina-the-teenage-witch-1996-internal-dvdrip-x264-mars.238554/]]></link>
                <description><![CDATA[<article>
<blockquote class="messageText SelectQuoteContainer ugc baseHtml">
<div style="text-align: center"><img src="https://m.media-amazon.com/images/M/MV5BN2Y4MTljNjMtZWMzNS00MjlhLTkwODAtMDM1MjBmZjY5MDIwXkEyXkFqcGdeQXVyMzQxNzU3NA@@._V1_FMjpg_UX960_.jpg" class="bbCodeImage LbImage" alt="[​IMG]" data-url="https://m.media-amazon.com/images/M/MV5BN2Y4MTljNjMtZWMzNS00MjlhLTkwODAtMDM1MjBmZjY5MDIwXkEyXkFqcGdeQXVyMzQxNzU3NA@@._V1_FMjpg_UX960_.jpg" style=""> ​</div><br>
<div style="text-align: center">Sent by her parents to live with her two eccentric aunts, Sabrina Sawyer discovers on her 16th birthday that she's a witch.<br>
<br>
Download:<br>
<br>
<div class="bbCodeBlock bbCodeVfcHH HiddenContent">
<div class="attribution type">Hidden Content:</div>
<blockquote>You must either reply or click 'Like' to see the hidden information contained here.</blockquote>
</div></div>
<div class="messageTextEndMarker">&nbsp;</div>
</blockquote>
</article>]]></description>
                <author><![CDATA[sunnyillion]]></author>
                </item>

                
                <item>
                <title><![CDATA[【PRORES HD】Taylor Swift feat. Chris Stapleton - I Bet You Think About Me (Taylor's Version) (USUMV2102373) [PRORES 1080p]]]></title>
                <link><![CDATA[https://sharemania.us/threads/taylor-swift-feat-chris-stapleton-i-bet-you-think-about-me-taylors-version-usumv2102373-prores-1080p.238555/]]></link>
                <description><![CDATA[<article>
<blockquote class="messageText SelectQuoteContainer ugc baseHtml">
Since it already has been leaked. <img src="styles/default/xenforo/smilies/exciting-48.png" class="mceSmilie" alt=":D" title="Big Grin    :D"> <br>
<br>
<img src="https://i.imgur.com/GfEAPCj.png" class="bbCodeImage LbImage" alt="[​IMG]" data-url="https://i.imgur.com/GfEAPCj.png" style=""> <br>
<br>
<div class="ToggleTriggerAnchor bbCodeSpoilerContainer">
<button type="button" class="button bbCodeSpoilerButton ToggleTrigger Tooltip JsOnly" data-target="> .SpoilerTarget"><span>Spoiler: <span class="SpoilerTitle">MediaInfo</span></span></button>
<div class="SpoilerTarget bbCodeSpoilerText">General<br>
Format : MPEG-4<br>
Format profile : QuickTime<br>
Codec ID : qt 2005.03 (qt )<br>
File size : 7.11 GiB<br>
Duration : 6 min 15 s<br>
Overall bit rate mode : Variable<br>
Overall bit rate : 163 Mb/s<br>
Frame rate : 23.976 FPS<br>
Encoded date : 2021-11-13 18:04:23 UTC<br>
Tagged date : 2021-11-13 18:04:30 UTC<br>
Writing library : Apple QuickTime<br>
TIM : 01:00:00:00<br>
TSC : 24000<br>
TSZ : 1001<br>
<br>
Video<br>
ID : 1<br>
Format : ProRes<br>
Format version : Version 0<br>
Format profile : 422 HQ<br>
Codec ID : apch<br>
Duration : 6 min 15 s<br>
Bit rate mode : Variable<br>
Bit rate : 160 Mb/s<br>
Width : 1 920 pixels<br>
Height : 1 080 pixels<br>
Display aspect ratio : 16:9<br>
Frame rate mode : Constant<br>
Frame rate : 23.976 (24000/1001) FPS<br>
Color space : YUV<br>
Chroma subsampling : 4:2:2<br>
Scan type : Progressive<br>
Bits/(Pixel*Frame) : 3.226<br>
Stream size : 7.01 GiB (99%)<br>
Writing library : aut0<br>
Language : English<br>
Encoded date : 2021-11-13 18:04:23 UTC<br>
Tagged date : 2021-11-13 18:04:23 UTC<br>
Color primaries : BT.709<br>
Transfer characteristics : BT.709<br>
Matrix coefficients : BT.709<br>
<br>
Audio<br>
ID : 2<br>
Format : PCM<br>
Format settings : Little / Signed<br>
Codec ID : in24<br>
Duration : 6 min 15 s<br>
Bit rate mode : Constant<br>
Bit rate : 2 304 kb/s<br>
Channel(s) : 2 channels<br>
Channel layout : L R<br>
Sampling rate : 48.0 kHz<br>
Bit depth : 24 bits<br>
Stream size : 103 MiB (1%)<br>
Language : English<br>
Encoded date : 2021-11-13 18:04:23 UTC<br>
Tagged date : 2021-11-13 18:04:23 UTC<br>
<br>
Other<br>
ID : 3<br>
Type : Time code<br>
Format : QuickTime TC<br>
Duration : 6 min 15 s<br>
Frame rate : 23.976 (24000/1001) FPS<br>
Time code of first frame : 01:00:00:00<br>
Time code of last frame : 01:06:14:18<br>
Time code, stripped : Yes<br>
Language : English<br>
Encoded date : 2021-11-13 18:04:23 UTC<br>
Tagged date : 2021-11-13 18:04:23 UTC</div>
</div><br>
<div class="bbCodeBlock bbCodeVfcHH HiddenContent">
<div class="attribution type">Hidden Content:</div>
<blockquote>You must reply before you can see the hidden data contained here.</blockquote>
</div>
<div class="messageTextEndMarker">&nbsp;</div>
</blockquote>
</article>]]></description>
                <author><![CDATA[Lalynsantiago]]></author>
                </item>

                </channel></rss>